<svg xmlns="http://www.w3.org/2000/svg" width="145.439" height="112" viewBox="0 0 145.439 112">
  <g id="admin" transform="translate(0 23.882)">
    <rect id="Rectangle_3" data-name="Rectangle 3" width="112" height="112" rx="30" transform="translate(33.439 -23.882)" fill="#f1f9ff"/>
    <path id="Path_3" data-name="Path 3" d="M283.545,190.392a18.667,18.667,0,0,1-6.7-6.063,17.036,17.036,0,1,1,14.277,7.8,25.6,25.6,0,0,0-24.964,23.231c-.063.733-.154,1.465-.188,2.2-.043.925-.39,1.516-1.416,1.491-1.056-.026-1.3-.7-1.3-1.593a27.335,27.335,0,0,1,4.444-15.043,28.211,28.211,0,0,1,14.564-11.532C282.639,190.75,283.011,190.6,283.545,190.392ZM305.367,175.1a14.215,14.215,0,1,0-14.209,14.191A14.149,14.149,0,0,0,305.367,175.1Z" transform="translate(-263.253 -158.005)" fill="#0072e9"/>
    <path id="Path_4" data-name="Path 4" d="M393.484,278.323c-1.639-.239-3.049-.4-4.441-.659a2.166,2.166,0,0,0-2.737,1.7c-.363,1.093-.856,2.147-1.156,3.256-.267.986-.767,1.6-1.805,1.588-2.556-.028-5.113-.062-7.664-.2-.344-.018-.787-.576-.959-.98-.471-1.106-.818-2.266-1.222-3.4-.614-1.719-1.312-2.132-3.092-1.843a24.927,24.927,0,0,1-3.575.53,2.585,2.585,0,0,1-1.955-.785,45.091,45.091,0,0,1-2.777-5.242,1.633,1.633,0,0,1,.324-1.349c.809-1.034,1.713-1.995,2.608-2.958a2.04,2.04,0,0,0,.084-3.075,17.2,17.2,0,0,0-1.734-2.041c-1.518-1.263-1.41-2.621-.493-4.131.19-.313.315-.664.491-.985,2.012-3.664,2.3-3.8,6.42-2.969,2.519.506,3.161.156,4.052-2.209a3.08,3.08,0,0,0,.224-.586c.454-3.015,2.343-4.032,5.183-3.754.312.031.631-.015.946-.009,4.423.091,4.423.092,5.881,4.248.838,2.39,1.537,2.808,3.981,2.4a8.884,8.884,0,0,0,1.861-.278c2.028-.823,3.006.381,3.876,1.874.106.181.215.361.314.546,1.948,3.649,1.947,3.65-.7,6.857-1.924,2.33-1.923,2.668.016,4.942a5.622,5.622,0,0,1,.412.478c.617.922,1.945,2.149,1.707,2.723a45.271,45.271,0,0,1-3.568,6.2C393.893,278.36,393.5,278.32,393.484,278.323Zm1.081-17.874c-1.474-3.464-1.474-3.464-4.325-3.251-4.542.34-5.635-.335-7.1-4.784a2.327,2.327,0,0,0-2.47-1.835c-2.975-.115-3.151-.043-4.2,2.73-.185.491-.353.991-.585,1.459a4.92,4.92,0,0,1-5.12,2.623,23.105,23.105,0,0,1-2.475-.456c-1.26-.346-1.722.495-2.119,1.367-.412.9-1.476,1.677-.271,2.88,3.622,3.613,3.757,6,.136,9.84-.072.076-.126.172-.2.241-1.3,1.143.027,1.973.395,2.87.338.824.78,1.49,2.016,1.209,5.589-1.267,7.591.332,8.732,5.069a.94.94,0,0,0,.183.431c.3.308.593.748.966.849,3.065.829,4.461.088,5.545-2.855.09-.246.168-.5.265-.741a4.894,4.894,0,0,1,5.681-3.149c.773.137,1.541.318,2.319.409a1.478,1.478,0,0,0,1-.181,3.107,3.107,0,0,0,.414-4.642c-.333-.407-.673-.81-.995-1.226a4.785,4.785,0,0,1,.1-6.353C393.161,262.109,393.874,261.269,394.565,260.449Z" transform="translate(-330.7 -219.575)" fill="#0072e9"/>
    <path id="Path_5" data-name="Path 5" d="M404.889,285.45a6.387,6.387,0,0,1,6.362,6.3,6.461,6.461,0,0,1-6.471,6.375,6.339,6.339,0,1,1,.109-12.677Zm3.533,6.345a3.5,3.5,0,0,0-3.628-3.517,3.536,3.536,0,0,0-3.58,3.444,3.629,3.629,0,0,0,3.586,3.63A3.556,3.556,0,0,0,408.422,291.795Z" transform="translate(-355.577 -245.014)" fill="#0072e9"/>
  </g>
</svg>
