<svg id="f-logo" xmlns="http://www.w3.org/2000/svg" width="153" height="61.031" viewBox="0 0 153 61.031">
  <path id="Path_74" data-name="Path 74" d="M485.308,26.184h-4.091l-3.286,4.835c-.279-.434-3.038-4.37-3.317-4.835h-4.277l5.393,7.47-5.486,7.625h4.122c.279-.465,3.1-4.587,3.41-5.048l3.507,5.048H485.5l-5.491-7.687Z" transform="translate(-345.159 -1.224)" fill="#30a1da"/>
  <path id="Path_75" data-name="Path 75" d="M414.823,17.9q-.292-.011-.586-.006a11,11,0,0,0-11.166,10.834c0,.2,0,.4.007.6a11.009,11.009,0,0,0,11.159,11.469,11.5,11.5,0,0,0,5.734-1.519l2.7,2.945,2.511-2.139-2.6-2.914a11.477,11.477,0,0,0,2.852-7.842A11.025,11.025,0,0,0,414.823,17.9Zm5.272,16.515-3.658-4.06-2.542,2.17,3.627,4.029a7.574,7.574,0,0,1-3.286.713c-3.689,0-7.346-2.635-7.346-7.935h0c0-5.3,3.658-7.935,7.35-7.935,3.72,0,7.377,2.635,7.377,7.935A8.4,8.4,0,0,1,420.095,34.41Z" transform="translate(-337.474 -0.275)" fill="#30a1da"/>
  <path id="Path_76" data-name="Path 76" d="M440.685,24.837a5.441,5.441,0,0,0-4.742,2.263v-9.21h-3.534V40.33h3.5V38.315a5.184,5.184,0,0,0,4.649,2.391c4.4,0,7.1-3.441,7.1-8C447.659,28.277,445.21,24.837,440.685,24.837Zm-.713,12.673c-2.294,0-4.06-1.8-4.06-4.773,0-3.011,1.767-4.711,4.06-4.711,2.387,0,4.06,1.7,4.06,4.711C444.033,35.712,442.328,37.509,439.972,37.509Z" transform="translate(-340.831 -0.275)" fill="#30a1da"/>
  <path id="Path_77" data-name="Path 77" d="M459.565,25.659c-3.812,0-7.346,3.162-7.346,7.935,0,5.114,3.622,8.09,7.718,8.09a6.8,6.8,0,0,0,6.819-4.773l-3.033-.961a3.641,3.641,0,0,1-3.782,2.635,4.042,4.042,0,0,1-4.127-3.936h11.035a5.3,5.3,0,0,0,.093-1.147C466.942,28.728,464.214,25.659,459.565,25.659Zm-3.658,6.354a3.624,3.624,0,0,1,3.689-3.348,3.381,3.381,0,0,1,3.7,3.026c.011.106.016.214.017.321Z" transform="translate(-343.097 -1.164)" fill="#30a1da"/>
  <path id="Path_78" data-name="Path 78" d="M363.877-2H346.438S328.928-2.048,329,15.437s0,17.437,0,17.437-.163,17.313,17.437,17.437H372.6l8.719,8.719V15.437S381.351-2,363.877-2Zm-5.932,44.724s-10.309-3.985-20.428,0V7.877s9.17-2.973,20.428,3.287Zm14.8.19s-7.652-2.972-13.727,0V10.849s3.036-3.732,13.727-3.289Z" transform="translate(-329.001 2)" fill="#30a1da"/>
  <path id="Path_79" data-name="Path 79" d="M493.7,25.564h1.253v3.355h.5V25.564h1.258v-.449H493.7Z" transform="translate(-347.842 -1.102)" fill="#30a1da"/>
  <path id="Path_80" data-name="Path 80" d="M500.619,25.115l-.91,2.647c-.092.267-.159.471-.2.609q-.057-.187-.182-.563l-.9-2.693h-.757v3.8h.485V25.681l1.1,3.238h.454l1.105-3.184v3.184h.485v-3.8Z" transform="translate(-348.296 -1.102)" fill="#30a1da"/>
</svg>
