<svg id="h-logo" xmlns="http://www.w3.org/2000/svg" width="124.014" height="49.424" viewBox="0 0 124.014 49.424">
  <g id="Group_2" data-name="Group 2" transform="translate(0 0)">
    <g id="Group_1" data-name="Group 1" transform="translate(0)">
      <path id="Path_1" data-name="Path 1" d="M235.121,293s-14.18-.039-14.121,14.121,0,14.121,0,14.121-.132,14.021,14.121,14.121H256.3l7.061,7.061v-35.3S263.393,293,249.243,293Z" transform="translate(-221 -293)" fill="#30a1da"/>
      <path id="Qbex" d="M1.467-16.078A8.915,8.915,0,0,0,10.5-6.791a9.307,9.307,0,0,0,4.644-1.23l2.184,2.385,2.033-1.732L17.256-9.728a9.3,9.3,0,0,0,2.309-6.351,8.928,8.928,0,0,0-2.54-6.579A8.928,8.928,0,0,0,10.5-25.34a8.909,8.909,0,0,0-6.511,2.687,8.909,8.909,0,0,0-2.525,6.576Zm3.084,0c0-4.292,2.962-6.426,5.953-6.426,3.012,0,5.974,2.134,5.974,6.426a6.8,6.8,0,0,1-1.23,4.117L12.286-15.25l-2.058,1.757,2.937,3.263a6.126,6.126,0,0,1-2.661.577c-2.987,0-5.949-2.134-5.949-6.426ZM25.338-7.167V-8.8A4.2,4.2,0,0,0,29.1-6.863c3.564,0,5.748-2.786,5.748-6.476,0-3.589-1.983-6.376-5.648-6.376a4.407,4.407,0,0,0-3.84,1.832V-25.34H22.5V-7.167Zm6.576-6.15c0,2.41-1.381,3.866-3.288,3.866-1.857,0-3.288-1.456-3.288-3.866,0-2.438,1.431-3.815,3.288-3.815,1.933,0,3.288,1.381,3.288,3.815ZM39.7-14.622a2.935,2.935,0,0,1,2.987-2.711,2.738,2.738,0,0,1,2.106.689,2.738,2.738,0,0,1,.906,2.022Zm6.329,3.188A2.949,2.949,0,0,1,42.963-9.3a3.273,3.273,0,0,1-3.342-3.188h8.936a4.313,4.313,0,0,0,.075-.929c0-3.866-2.209-6.351-5.974-6.351a6.128,6.128,0,0,0-5.949,6.426,6.171,6.171,0,0,0,6.25,6.551,5.506,5.506,0,0,0,5.522-3.866Zm3.611,4.267h3.338c.226-.377,2.51-3.715,2.761-4.088l2.84,4.088h3.414l-4.446-6.225,4.292-6H58.522l-2.661,3.916c-.226-.351-2.46-3.539-2.686-3.916H49.711l4.368,6.049Z" transform="translate(51.66 39.604)" fill="#fdb912"/>
    </g>
    <path id="Path_4" data-name="Path 4" d="M245.358,303.649v25.557s-8.349-3.227-16.543,0V300.987S236.241,298.579,245.358,303.649Z" transform="translate(-221.918 -292.988)" fill="#fff"/>
    <path id="Path_5" data-name="Path 5" d="M248.545,303.432s2.458-3.022,11.116-2.664V329.4s-6.2-2.407-11.116,0Z" transform="translate(-224.234 -293.026)" fill="#fff"/>
  </g>
  <text id="TM" transform="translate(118.014 22.223)" fill="#b5b5b5" font-size="4" font-family="SegoeUI-Semibold, Segoe UI" font-weight="600"><tspan x="0" y="0">TM</tspan></text>
</svg>
