<svg xmlns="http://www.w3.org/2000/svg" width="131.094" height="112" viewBox="0 0 131.094 112">
  <g id="management" transform="translate(-191.519 -128.966)">
    <rect id="Rectangle_5" data-name="Rectangle 5" width="112" height="112" rx="30" transform="translate(210.613 128.966)" fill="#ecffe2"/>
    <path id="Path_19" data-name="Path 19" d="M235.155,211.546h1.977a5.015,5.015,0,0,1-.881,3.491,4.93,4.93,0,0,1-2.258,1.773,5.172,5.172,0,0,1-1.828.348H203.582c-2.366,0-4.732.005-7.1,0a4.974,4.974,0,0,1-4.934-4.353,7.513,7.513,0,0,1-.025-.964q0-5.626,0-11.252V178.645c0-3.546.014-7.091-.005-10.636a4.954,4.954,0,0,1,3.8-4.824,5.1,5.1,0,0,1,1.11-.135c1.759-.014,3.519-.006,5.278-.006h.314c-.039-.326-.09-.631-.109-.938a1.263,1.263,0,0,1,1.308-1.4c1.893,0,3.786,0,5.679.007.268,0,.536-.015.8-.008.153,0,.2-.059.213-.2.089-1.1.2-2.2.271-3.306a4.335,4.335,0,0,1,1.789-3.513,3.964,3.964,0,0,1,6.075,2.081,11.31,11.31,0,0,1,.329,2.157c.1.868.155,1.74.22,2.611.013.177.116.168.237.168h2.142l4.286,0a1.243,1.243,0,0,1,1.324,1.319c0,.326-.05.651-.081,1.019h.277q2.652,0,5.3,0a4.876,4.876,0,0,1,3.941,1.81,4.686,4.686,0,0,1,1.123,3.07q0,8,0,15.995c0,.087-.008.174-.014.272h-1.979v-.331c0-5.26-.012-10.52.007-15.779a2.979,2.979,0,0,0-2.389-2.969,3.317,3.317,0,0,0-.557-.055c-2.063,0-4.126,0-6.189-.008a.426.426,0,0,0-.4.225A5.857,5.857,0,0,1,221,168.022c-.9.063-1.814.023-2.721.027-1.24.006-2.479.015-3.719.016q-3.241,0-6.483,0a5.833,5.833,0,0,1-3.983-1.434,16.046,16.046,0,0,1-1.233-1.394.48.48,0,0,0-.29-.177c-2.027-.01-4.054-.027-6.081,0a2.916,2.916,0,0,0-2.97,3.047q0,19.692,0,39.385,0,2.291,0,4.581a2.935,2.935,0,0,0,2.451,3.022,2.251,2.251,0,0,0,.452.036c1.125,0,2.251,0,3.376,0,1.382.005,2.764.023,4.146.022q7.14-.007,14.279-.022,6.938-.007,13.876.006a3.041,3.041,0,0,0,2.019-.7,2.886,2.886,0,0,0,1.035-2.12C235.172,212.07,235.155,211.82,235.155,211.546Zm-20.921-46.628h1.419q2.838,0,5.677,0a.686.686,0,1,0,.025-1.368c-.089,0-.178,0-.268,0H207.4c-.125,0-.25,0-.374.015a.627.627,0,0,0-.544.416.678.678,0,0,0,.678.941Q210.7,164.921,214.234,164.918Zm.021-6.481a1.7,1.7,0,0,0,1.7-1.727,1.7,1.7,0,0,0-3.406.034A1.7,1.7,0,0,0,214.255,158.438Z" fill="#5ab22b"/>
    <path id="Path_20" data-name="Path 20" d="M293.135,235.613l2.038,4.782c-.209.131-.417.263-.627.392-.872.538-1.744,1.077-2.62,1.611a.285.285,0,0,0-.149.3q.024.923.007,1.845a.347.347,0,0,0,.2.356c1.064.634,2.12,1.28,3.192,1.929l-1.941,4.819-1.858-.44c-.614-.146-1.226-.3-1.842-.433a.381.381,0,0,0-.293.1c-.454.441-.885.907-1.347,1.338-.148.138-.085.254-.055.378.289,1.164.584,2.326.877,3.489.008.034.011.069.021.13l-4.79,2.04c-.572-.927-1.173-1.814-1.679-2.753a1.055,1.055,0,0,0-1.228-.665,5.93,5.93,0,0,1-1.176,0,.339.339,0,0,0-.357.2c-.608,1.028-1.226,2.051-1.837,3.077-.07.118-.123.191-.289.124-1.548-.63-3.1-1.25-4.668-1.881.241-1.019.48-2.027.72-3.036.058-.242.132-.481.169-.726a.394.394,0,0,0-.091-.294q-.652-.671-1.331-1.315a.346.346,0,0,0-.276-.052c-1.165.285-2.329.574-3.489.878-.2.051-.278.018-.358-.171-.637-1.517-1.285-3.029-1.941-4.57l1.109-.686c.72-.445,1.438-.893,2.164-1.33a.311.311,0,0,0,.168-.32c-.011-.605,0-1.212-.019-1.817a.448.448,0,0,0-.213-.287c-1.05-.638-2.108-1.265-3.163-1.9-.023-.014-.043-.031-.089-.066.229-.568.46-1.141.69-1.715.385-.958.777-1.912,1.15-2.875.081-.208.175-.234.376-.184,1.138.282,2.28.548,3.42.824a.342.342,0,0,0,.387-.127c.4-.435.814-.85,1.232-1.263a.308.308,0,0,0,.109-.345c-.315-1.222-.617-2.448-.931-3.7l4.78-2.03c.527.84,1.034,1.646,1.539,2.454.165.264.32.536.5.794a.322.322,0,0,0,.222.135c.634,0,1.267-.025,1.9-.026a.318.318,0,0,0,.318-.176c.6-1.012,1.213-2.016,1.809-3.031.1-.17.186-.193.358-.123q2.214.9,4.434,1.785c.145.058.173.127.135.28-.281,1.139-.55,2.281-.824,3.421a.339.339,0,0,0,.122.387c.45.405.877.837,1.3,1.271a.323.323,0,0,0,.368.11c1.134-.3,2.272-.577,3.41-.862C292.945,235.64,293.024,235.632,293.135,235.613Zm-12.5,1.1a7.018,7.018,0,1,0,7.029,7.042A7.029,7.029,0,0,0,280.632,236.714Z" transform="translate(-44.466 -45.488)" fill="#5ab22b"/>
    <path id="Path_21" data-name="Path 21" d="M215.493,201.8c.85-.741,1.648-1.438,2.449-2.131a1.317,1.317,0,0,1,.37-.253.549.549,0,0,1,.665.257.571.571,0,0,1-.127.707c-.5.446-1,.884-1.508,1.324-.571.5-1.148.992-1.711,1.5a.476.476,0,0,0-.132.317c-.01,1.027-.009,2.053-.006,3.079a1.012,1.012,0,0,1-1.087,1.107q-2.919,0-5.838-.005a.983.983,0,0,1-1.043-1.013q-.012-2.973,0-5.945a.991.991,0,0,1,1.052-1.007l5.838,0a1,1,0,0,1,1.077,1.06C215.494,201.107,215.493,201.418,215.493,201.8Zm-1.105,2.474c-.635.556-1.222,1.077-1.818,1.588a.569.569,0,0,1-.947-.134c-.575-.88-1.148-1.761-1.711-2.65a.779.779,0,0,1-.118-.424.514.514,0,0,1,.423-.489.521.521,0,0,1,.6.236c.479.73.953,1.463,1.431,2.2a.343.343,0,0,0,.073-.037,16.566,16.566,0,0,1,1.361-1.166,1.51,1.51,0,0,0,.724-1.6,6.533,6.533,0,0,1-.008-.95h-5.754v5.737h5.74Z" transform="translate(-9.544 -27.685)" fill="#5ab22b"/>
    <path id="Path_22" data-name="Path 22" d="M215.494,234.752l1.557-1.355c.357-.31.71-.624,1.072-.928a.548.548,0,0,1,.674-.039.5.5,0,0,1,.227.6.9.9,0,0,1-.268.381c-1.029.909-2.069,1.806-3.1,2.718a.538.538,0,0,0-.158.357c-.013,1.027-.006,2.053-.007,3.079a1,1,0,0,1-1.08,1.085H208.6a1,1,0,0,1-1.079-1.061q-.008-2.918,0-5.835a.993.993,0,0,1,1.071-1.069q2.9-.008,5.81,0a1,1,0,0,1,1.089,1.1C215.494,234.087,215.494,234.381,215.494,234.752Zm-1.093-.942h-5.757v5.735h5.742v-2.29c-.081.061-.138.1-.188.142-.538.469-1.073.941-1.613,1.408a.586.586,0,0,1-.97-.134l-.9-1.39c-.276-.426-.559-.848-.826-1.28a.57.57,0,1,1,.956-.618c.062.087.116.18.174.27l1.245,1.916c.7-.605,1.375-1.194,2.049-1.789a.314.314,0,0,0,.086-.211C214.4,234.989,214.4,234.41,214.4,233.81Z" transform="translate(-9.544 -47.339)" fill="#5ab22b"/>
    <path id="Path_23" data-name="Path 23" d="M215.493,267.708c.849-.742,1.644-1.442,2.446-2.134a1.3,1.3,0,0,1,.423-.267.527.527,0,0,1,.623.295.572.572,0,0,1-.151.7c-1,.876-2,1.754-3.009,2.618a.823.823,0,0,0-.343.716c.027.955.01,1.91.009,2.866a.986.986,0,0,1-1.084,1.1q-2.933,0-5.866,0a.957.957,0,0,1-1.015-.979q-.018-2.986,0-5.972a.955.955,0,0,1,1.027-1c1.214,0,2.428.01,3.642.01.722,0,1.445-.015,2.167-.015a1,1,0,0,1,1.13,1.136Zm-3.252,2.78c.038,0,.05,0,.055-.006a18.252,18.252,0,0,1,1.425-1.214,1.458,1.458,0,0,0,.687-1.532,7.187,7.187,0,0,1-.008-.983h-5.769v5.755h5.755v-2.3c-.07.054-.113.084-.152.117-.567.491-1.129.986-1.7,1.471a.554.554,0,0,1-.876-.109q-.888-1.353-1.759-2.716a.545.545,0,0,1,.157-.812.553.553,0,0,1,.8.2c.174.259.337.525.507.786C211.658,269.594,211.954,270.047,212.241,270.489Z" transform="translate(-9.543 -66.993)" fill="#5ab22b"/>
    <path id="Path_24" data-name="Path 24" d="M248.49,216.839q4.473,0,8.947,0a.681.681,0,0,1,.649.342.6.6,0,0,1-.043.658.7.7,0,0,1-.629.281q-2.88,0-5.759,0H239.708c-.08,0-.161,0-.241,0a.639.639,0,1,1,.023-1.276q2.129,0,4.259,0Z" transform="translate(-28.204 -38.096)" fill="#5ab22b"/>
    <path id="Path_25" data-name="Path 25" d="M249.82,284.01h-10.3c-.463,0-.732-.258-.709-.673a.632.632,0,0,1,.689-.6c.508-.006,1.017,0,1.526,0q4.031,0,8.061,0a.253.253,0,0,1,.279.18C249.5,283.272,249.657,283.621,249.82,284.01Z" transform="translate(-28.206 -77.403)" fill="#5ab22b"/>
    <path id="Path_26" data-name="Path 26" d="M248.911,249.781c-.165.414-.309.8-.48,1.18-.028.061-.174.1-.265.1-1.15.006-2.3,0-3.452,0q-2.609,0-5.218,0a.629.629,0,0,1-.68-.753.638.638,0,0,1,.7-.527q3.211,0,6.422,0h2.975Z" transform="translate(-28.205 -57.746)" fill="#5ab22b"/>
  </g>
</svg>
