<svg xmlns="http://www.w3.org/2000/svg" xmlns:xlink="http://www.w3.org/1999/xlink" width="429" height="353" viewBox="0 0 429 353">
  <defs>
    <linearGradient id="linear-gradient" x1="0.5" x2="0.5" y2="1" gradientUnits="objectBoundingBox">
      <stop offset="0" stop-color="#4151f1"/>
      <stop offset="1" stop-color="#55bffd"/>
    </linearGradient>
  </defs>
  <g id="mobile-banner" transform="translate(0 -285)">
    <rect id="Rectangle_52" data-name="Rectangle 52" width="428" height="353" transform="translate(0 285)" fill="#fff"/>
    <path id="Subtraction_3" data-name="Subtraction 3" d="M-3086.7,357.234a181.99,181.99,0,0,1-29.455-2.421c-15.083-2.481-27.156-7.508-36.907-15.367-5.718-4.61-11.169-9.739-16.208-14.6-10.74-10.352-21.86-16.863-33.994-19.907-10.619-2.664-21.421-3.281-31.513-3.551a115.374,115.374,0,0,1-18.69-1.734,113.841,113.841,0,0,1-18.821-5.247,107.437,107.437,0,0,1-17.1-8.217,110.912,110.912,0,0,1-15.407-11.088,124.253,124.253,0,0,1-13.745-13.86,97.32,97.32,0,0,1-12.312-18.158,82.217,82.217,0,0,1-7.428-20.654c-.6-2.8-.927-5.708-1.246-8.518-.146-1.284-.3-2.612-.472-3.92v-2.634c.031-.227.069-.457.105-.68l0-.025a14.194,14.194,0,0,0,.191-1.5,54.086,54.086,0,0,1,2.814-14.631,53.436,53.436,0,0,1,6.787-13.252,62.8,62.8,0,0,1,12.746-13.4,77.607,77.607,0,0,1,15.85-9.473c4.292-1.945,8.775-3.656,13.111-5.312l.008,0c2.624-1,5.337-2.038,7.98-3.115,22.133-9.02,38.592-23.936,48.92-44.333,2.31-4.562,4.694-9.182,7-13.649l0-.01c1.124-2.178,2.4-4.646,3.641-7.067a92.385,92.385,0,0,1,8.219-13.194,85.567,85.567,0,0,1,10.066-11.219,87.081,87.081,0,0,1,11.887-9.279,96.922,96.922,0,0,1,13.683-7.373,174.5,174.5,0,0,1,27.74-9.414c8.536-2.171,17.669-3.964,28.74-5.643,2.938-.446,5.911-.875,8.788-1.29q2.01-.29,4.02-.582h11.3c.17.035.343.077.51.118a6.447,6.447,0,0,0,1.113.2,119.088,119.088,0,0,1,17.321,2.346V357C-3080.528,357.154-3083.64,357.234-3086.7,357.234Z" transform="translate(3505.954 266)" stroke="rgba(0,0,0,0)" stroke-miterlimit="10" stroke-width="1" fill="url(#linear-gradient)"/>
  </g>
</svg>
