<svg xmlns="http://www.w3.org/2000/svg" width="139.791" height="112" viewBox="0 0 139.791 112">
  <g id="students" transform="translate(-184.976 -124.805)">
    <rect id="Rectangle_4" data-name="Rectangle 4" width="112" height="112" rx="30" transform="translate(212.767 124.805)" fill="#fff2ef"/>
    <path id="Path_6" data-name="Path 6" d="M310.441,254.452a13.228,13.228,0,0,0,.74-2.68,3.564,3.564,0,0,1,4.456-3.416c.373.077.736.2,1.177.326v-15.77l-1.381-.125v-2h4.43c2.572,0,5.144-.028,7.715.02,1.052.02,1.272-.391,1.013-1.329-.477-1.728-.906-3.468-1.4-5.375h-1.238q-7.394,0-14.787,0c-2.814,0-4.592-1.521-4.575-3.9.017-2.348,1.751-3.829,4.5-3.834,2.733-.005,5.465,0,8.355,0a10.62,10.62,0,0,1,.047-2.383c.11-.449.677-.787,1.038-1.175.32.387.856.742.918,1.166a29.274,29.274,0,0,1,.056,2.951c.046,1.121-.487,1.517-1.56,1.506-3-.031-6-.017-9-.009-1.466,0-2.3.679-2.3,1.822s.834,1.792,2.326,1.795c5.35.009,10.7,0,16.137,0,.029-.4.074-.728.073-1.053q-.006-5.4-.025-10.8c-.011-3.586-1.561-5.487-5.042-6.191,1.637-1.857,2.368-1.946,4.244-.44a7.594,7.594,0,0,1,2.854,6.2c.018,3.214,0,6.429,0,9.644a29.545,29.545,0,0,0,1.271,9.381c.854,2.568-.316,4.075-3.013,4.072h-1.347c0,.507,0,.957,0,1.408,0,5.4-.052,10.8.025,16.2.027,1.9-.581,3.237-2.341,4Zm13.546-5.077V232.948h-5v15.709C321.414,248.07,321.9,248.137,323.987,249.375Zm-7.184,2.983c-.243-1.393-.979-2.073-2.082-2.014a1.9,1.9,0,0,0-1.82,2.014Zm6.193,0c-.278-1.418-1.013-2.082-2.115-2.014a1.855,1.855,0,0,0-1.784,2.014Z" transform="translate(-90.21 -39.919)" fill="#ec6c4f"/>
    <path id="Path_7" data-name="Path 7" d="M258.672,291.935a3.485,3.485,0,0,1-1.829-3.5c.087-3.683.029-7.368.03-11.053v-1.4c-.747,0-1.377.027-2-.006a1.976,1.976,0,0,1-2.087-1.993c-.032-5.012-.061-10.025.032-15.036a6.546,6.546,0,0,1,2.427-4.8c1.732-1.534,1.954-1.517,3.719.29-3.313,1.023-4.279,3.429-4.177,6.646.123,3.895.031,7.8.032,11.695v1.072h2.057c0-.486-.018-.98,0-1.473.037-.814-.267-1.971.994-1.981,1.371-.012,1,1.208,1.052,2.05.027.425,0,.853,0,1.384h8.237a10.094,10.094,0,0,1,.044-2.239c.107-.463.635-.829.975-1.238.343.406.872.766.987,1.229a9.883,9.883,0,0,1,.044,2.254h2.021v-10.09H273.3c0,3.5.054,7-.033,10.5a1.829,1.829,0,0,1-1.919,1.729c-.638.045-1.282.008-2.132.008v1.406c0,3.684-.058,7.37.027,11.052a3.477,3.477,0,0,1-1.826,3.5Zm5.461-15.884v10.082H267.1V276.051Zm-5.147,0v10.08h2.966v-10.08Zm.3,13.757h2.454c.081-.993-.254-1.7-1.261-1.691C259.519,288.132,259.059,288.738,259.284,289.81Zm7.576,0c.106-1.073-.3-1.691-1.217-1.7-1-.008-1.394.656-1.266,1.7Z" transform="translate(-50.274 -77.402)" fill="#ec6c4f"/>
    <path id="Path_8" data-name="Path 8" d="M192.451,254.687c-1.757-.76-2.368-2.1-2.341-3.993.076-5.224.024-10.451.022-15.676,0-.42,0-.841,0-1.431-.76,0-1.432.031-2.1-.006a3.008,3.008,0,0,1-3.018-3.046c-.033-7.024-.078-14.05.027-21.073a7.046,7.046,0,0,1,6.111-6.629,1.98,1.98,0,0,1,1.181.24c.8.466,1.55,1.03,2.553,1.712-.993,0-1.773-.012-2.554,0a5.164,5.164,0,0,0-5.273,5.3c-.021,6.468-.011,12.935-.012,19.4,0,1.935.121,2.053,2.029,2.042.295,0,.589,0,1.052,0,0-1.422.008-2.776,0-4.131-.006-.744.107-1.464,1.015-1.481s1.063.678,1.055,1.437c-.013,1.325,0,2.65,0,4.127h8.145v1.986c-.937-.011-.962.624-.956,1.417.033,4.24.013,8.481.011,12.721v1.368a4.277,4.277,0,0,1,4.382.3,1.94,1.94,0,0,1,.733,1.089,27.508,27.508,0,0,1,.378,3.542c.012.252-.392.522-.6.784Zm-.231-4.926a4.538,4.538,0,0,1,5.036-.807V233.7H192.22Zm5.024,2.81c-.2-1.34-.939-2.078-2.044-1.982a1.943,1.943,0,0,0-1.935,1.982Zm6.169.009c-.178-1.328-.916-2.079-2.023-1.991a1.94,1.94,0,0,0-1.95,1.991Z" transform="translate(0 -40.154)" fill="#ec6c4f"/>
    <path id="Path_9" data-name="Path 9" d="M223.357,155.916a7.2,7.2,0,1,1-7.166-7.229A7.2,7.2,0,0,1,223.357,155.916Zm-2.057.17a5.143,5.143,0,1,0-5.338,4.939A5.152,5.152,0,0,0,221.3,156.086Z" transform="translate(-17.793)" fill="#ec6c4f"/>
    <path id="Path_10" data-name="Path 10" d="M320.529,155.858a7.2,7.2,0,1,1,7.17,7.225A7.208,7.208,0,0,1,320.529,155.858Zm12.338.082a5.142,5.142,0,1,0-5.2,5.088A5.148,5.148,0,0,0,332.867,155.94Z" transform="translate(-100.549 0)" fill="#ec6c4f"/>
    <path id="Path_11" data-name="Path 11" d="M282.029,216.1a5.653,5.653,0,1,1-5.633-5.64A5.657,5.657,0,0,1,282.029,216.1Zm-5.619-3.577a3.59,3.59,0,1,0,3.557,3.623A3.589,3.589,0,0,0,276.41,212.519Z" transform="translate(-63.605 -45.819)" fill="#ec6c4f"/>
    <path id="Path_12" data-name="Path 12" d="M225.174,221.13c1.457-1.012,2.211-2.174,1.619-4.085a49.708,49.708,0,0,1-1.077-5.515l2-.386c.527,2.763,1.044,5.44,1.536,8.121a.968.968,0,0,1-.147.724c-1.081,1.212-2.153,2.44-3.339,3.542a1.507,1.507,0,0,1-1.417-.189,33.5,33.5,0,0,1-2.9-3.082,1.6,1.6,0,0,1-.321-1.161c.454-2.607.973-5.2,1.5-7.936l2,.352a48.724,48.724,0,0,1-1.082,5.568C222.946,219.015,223.771,220.131,225.174,221.13Z" transform="translate(-26.808 -46.329)" fill="#ec6c4f"/>
    <path id="Path_13" data-name="Path 13" d="M251.329,205.015c1.871-1.71,3.836-2.629,6.045-.568-.673.939-1.334,1.5-2.693.948A12.091,12.091,0,0,0,251.329,205.015Z" transform="translate(-49.219 -40.483)" fill="#ec6c4f"/>
    <path id="Path_14" data-name="Path 14" d="M310.214,203.665c2.326-2,2.707-2,5.214-.006a14.446,14.446,0,0,0-1.954.388,16.371,16.371,0,0,0-1.88.914Z" transform="translate(-92.898 -39.667)" fill="#ec6c4f"/>
    <path id="Path_15" data-name="Path 15" d="M345.771,218.921c-.5-.608-1.06-.99-1.021-1.3.051-.411.565-.764.88-1.141.357.339.908.629,1.008,1.032C346.711,217.812,346.2,218.257,345.771,218.921Z" transform="translate(-118.514 -50.287)" fill="#ec6c4f"/>
    <path id="Path_16" data-name="Path 16" d="M347.136,229.564c-.654.515-1.053,1.063-1.359,1.015a1.563,1.563,0,0,1-1.045-.937c-.07-.234.524-.929.854-.953C345.98,228.659,346.41,229.124,347.136,229.564Z" transform="translate(-118.498 -59.342)" fill="#ec6c4f"/>
    <path id="Path_17" data-name="Path 17" d="M289.965,266.949c-.523-.647-1.076-1.04-1.032-1.346a1.571,1.571,0,0,1,.926-1.061c.232-.074.939.515.965.843C290.857,265.782,290.4,266.219,289.965,266.949Z" transform="translate(-77.111 -85.934)" fill="#ec6c4f"/>
    <path id="Path_18" data-name="Path 18" d="M289.949,282.72c-.5-.693-.994-1.084-1-1.481,0-.332.566-.67.882-1.006.358.338.911.628,1.011,1.03C290.918,281.565,290.41,282.012,289.949,282.72Z" transform="translate(-77.125 -97.578)" fill="#ec6c4f"/>
  </g>
</svg>
