<svg xmlns="http://www.w3.org/2000/svg" width="144.083" height="112" viewBox="0 0 144.083 112">
  <g id="teachers" transform="translate(-750.518 -141.156)">
    <rect id="Rectangle_6" data-name="Rectangle 6" width="112" height="112" rx="30" transform="translate(782.6 141.156)" fill="#f5f2ff"/>
    <path id="Path_27" data-name="Path 27" d="M759.477,202.653a3.623,3.623,0,0,1-.432-2.677,3.149,3.149,0,0,1,5.907-.521c.281.6.513,1.231.763,1.848.241.6.478,1.194.724,1.81a2.211,2.211,0,0,0,.752-2.31,18.535,18.535,0,0,1,1.076-9.955,13.965,13.965,0,0,0,1.069-3.763,34.917,34.917,0,0,0,.072-5.791c-.357-5.247,1.241-9.657,5.36-13.017,8.242-6.726,21.037-1.976,22.951,8.475a31.355,31.355,0,0,1,.063,6.925,15.43,15.43,0,0,0,1.126,6.785,18.646,18.646,0,0,1,1.231,10.456,2.4,2.4,0,0,0,.381,1.869,16.373,16.373,0,0,1,1.18,2.453c.1.218.188.442.294.451,1.668-.317,3.333-.651,5.006-.947,2.013-.357,4.033-.674,6.048-1.024,1.129-.2,1.627.185,1.627,1.3q0,8.821.008,17.643a1.21,1.21,0,0,1-.808,1.3.587.587,0,0,0-.288.353,2.218,2.218,0,0,1-1.914,1.715c-.7.112-1.4.244-2.106.341a.952.952,0,0,0-.8.568,4.311,4.311,0,0,1-7.782-.177.921.921,0,0,0-1.042-.661c-1.785.152-3.469-.452-5.2-.734-.108-.018-.216-.03-.367-.05v3.945h-2.152c0-1.223-.031-2.462.014-3.7.02-.56-.14-.759-.708-.847-1.206-.186-2.4-.466-3.592-.724-.836-.181-1.059-.475-1.059-1.341q0-6.516,0-13.032v-.944c-.235.387-.382.609-.51.842q-.818,1.491-1.627,2.988a1.132,1.132,0,0,1-2.145.005c-1.893-3.477-3.8-6.946-5.675-10.432a.915.915,0,0,0-.982-.571c-1.265.067-2.547-.019-3.8.145a4.9,4.9,0,0,0-3.958,3.02c-.561,1.232-1.023,2.509-1.523,3.769a1.278,1.278,0,0,0-.1.448c-.005,4.141,0,8.282,0,12.581.173-.251.276-.374.351-.512,1.5-2.78,3.03-5.543,4.47-8.352a13.675,13.675,0,0,1,2.248-3.675c.247-.247.508-.483.8-.761l1.38,1.648a7.419,7.419,0,0,0-2.2,3.232,7.086,7.086,0,0,0,1.009,6.65,2.513,2.513,0,0,1,.508,1.6c-.025,2.406-.01,4.811-.01,7.217v.761h-2.133V228.6c0-2.25.016-4.5-.016-6.75a3.025,3.025,0,0,0-.342-1.163c-.462-1-.963-1.98-1.458-2.986-.058.089-.156.221-.233.364q-2.389,4.47-4.772,8.945A4.569,4.569,0,0,1,761.3,229.3a4.479,4.479,0,0,1-3.916-3.586,19.96,19.96,0,0,1,.037-3.848c.178-3.355.393-6.708.589-10.063.011-.195,0-.391,0-.594a8.5,8.5,0,0,1-2.08-.234,32.153,32.153,0,0,1-4.171-1.87,2.621,2.621,0,0,1-1.229-2.391c-.015-1.024-.012-2.05,0-3.074a2.35,2.35,0,0,1,3.369-2.175,14.035,14.035,0,0,0,2.533.975A21.634,21.634,0,0,0,759.477,202.653Zm9.852-2.306a8.065,8.065,0,0,1,3.938-.966c1.424.031,2.851-.007,4.276.014.574.008.8-.217.79-.791q-.036-1.669,0-3.34a.818.818,0,0,0-.443-.794,9.946,9.946,0,0,1-4.759-7.445,66.362,66.362,0,0,1-.127-7,1.191,1.191,0,0,1,.5-.806,14.375,14.375,0,0,0,4.853-5.831,1.08,1.08,0,0,1,1.853-.378,26.089,26.089,0,0,0,13.082,6.051c.8.128,1.062.461,1.064,1.261.005,1.715.023,3.43,0,5.144a10.465,10.465,0,0,1-4.88,8.984.863.863,0,0,0-.473.848c.039.8.011,1.6.011,2.4,0,1.853-.17,1.67,1.683,1.692,1.666.019,3.339.013,5,.156a11.528,11.528,0,0,1,2.333.7,15,15,0,0,0-.9-8.379,19.568,19.568,0,0,1-1.477-9.122,20.9,20.9,0,0,0-.047-5.524,12.14,12.14,0,0,0-23.6-1.144,19.622,19.622,0,0,0-.305,6.958,19.167,19.167,0,0,1-1.22,8.175,27.548,27.548,0,0,0-1.17,3.948A13.762,13.762,0,0,0,769.328,200.346Zm10.421-24.923a16.068,16.068,0,0,1-4.446,5.152.542.542,0,0,0-.182.391,45.438,45.438,0,0,0,.2,6.128,8.426,8.426,0,0,0,8.033,6.939,8.575,8.575,0,0,0,8.536-6.255c.615-2.2.235-4.454.351-6.708A28.078,28.078,0,0,1,779.75,175.423Zm9.264,33.837c0,4.185-.005,8.28.021,12.375,0,.16.275.414.463.462.795.2,1.606.341,2.411.5l5.664,1.128c0-4.175,0-8.292-.016-12.408a.586.586,0,0,0-.365-.421C794.5,210.342,791.8,209.812,789.013,209.26Zm23.5,0c-2.656.534-5.218,1.078-7.793,1.546-.631.115-.758.354-.754.947.027,3.74.014,7.481.014,11.221v.761l1.074-.236c0-.946,0-1.856,0-2.765a2.417,2.417,0,0,1,2.019-2.523,7.1,7.1,0,0,1,.983-.178c1.478-.116,2.932-.883,4.456-.128Zm-59.808-5.9c0,1.243-.02,2.385.019,3.526a.842.842,0,0,0,.4.579,9.073,9.073,0,0,0,4.6,1.559c1.823-.044,3.647-.009,5.472-.009h1.22c0-1.7,0-3.324-.006-4.944a1.472,1.472,0,0,0-.134-.509c-.391-.991-.784-1.98-1.189-2.965-.3-.717-.827-.982-1.4-.718s-.736.822-.406,1.518c.286.6.611,1.185.874,1.8a1.021,1.021,0,0,1-.841,1.521c-2.8-.009-5.677.433-8.236-1.221A2.361,2.361,0,0,0,752.708,203.357Zm35.671-2.038a2.8,2.8,0,0,1-1.509-2.862c.049-.884.009-1.774.009-2.746a11.325,11.325,0,0,1-6.42,0c0,.834-.037,1.59.008,2.34.083,1.367-.133,2.58-1.514,3.257.39.716.716,1.374,1.1,1.993a.85.85,0,0,0,.607.347q3,.039,6.005,0a.853.853,0,0,0,.61-.343C787.667,202.686,787.993,202.029,788.379,201.319Zm-28.244,14.127a2.39,2.39,0,0,0-.1.4c-.225,2.9-.46,5.808-.659,8.715a2.489,2.489,0,0,0,1.747,2.493,2.53,2.53,0,0,0,3.3-2.528c.019-2.849.005-5.7,0-8.546,0-.17-.025-.341-.041-.531Zm41.668,8.5V211.2h-2.062V223.95ZM799.517,205.8a5.2,5.2,0,0,0-4.179-4.129,40.984,40.984,0,0,0-4.322-.146.443.443,0,0,0-.343.139c-.409.716-.794,1.446-1.19,2.179C792.888,204.624,796.307,204.743,799.517,205.8Zm11.955,18.075c0-1.278,0-2.457,0-3.636,0-.339-.1-.577-.507-.51-1.1.182-2.195.351-3.284.568-.184.037-.461.28-.466.435-.038,1.26-.021,2.522-.021,3.85ZM789.09,206.024c-.22.758-.037,1.064.706,1.2,2.947.544,5.879,1.167,8.82,1.748a4.676,4.676,0,0,0,.838.007,2.678,2.678,0,0,0-2.067-1.577c-1.268-.226-2.539-.437-3.809-.648C792.089,206.508,790.6,206.269,789.09,206.024Zm23.431.062a.829.829,0,0,0-.188-.027c-2.8.463-5.613.9-8.411,1.406a2.426,2.426,0,0,0-1.858,1.668l10.456-2.076Zm-31.112-.267,2.263,4.135,2.251-4.135Zm-21.231,5.356v2.072h4.2v-2.072Zm46.074,15.492c-.857-1.39-1.982-.82-3.115-.5A2.034,2.034,0,0,0,806.252,226.667Z" fill="#6b3df0"/>
    <path id="Path_28" data-name="Path 28" d="M799.864,197.33c.661,0,1.261,0,1.86,0a.836.836,0,0,1,.186.045,3.1,3.1,0,0,1-3.015,3.151,3.14,3.14,0,0,1-3.316-3.167h2.047c.194.5.455,1.041,1.15,1.016C799.4,198.356,799.7,197.917,799.864,197.33Z" transform="translate(-15.084 -10.77)" fill="#6b3df0"/>
    <path id="Path_29" data-name="Path 29" d="M793.912,190.91a1.6,1.6,0,1,1-1.583-1.621A1.583,1.583,0,0,1,793.912,190.91Z" transform="translate(-13.455 -8.079)" fill="#6b3df0"/>
    <path id="Path_30" data-name="Path 30" d="M808.378,190.912a1.6,1.6,0,1,1-1.58-1.623A1.583,1.583,0,0,1,808.378,190.912Z" transform="translate(-18.298 -8.079)" fill="#6b3df0"/>
  </g>
</svg>
